<svg width="763" height="541" viewBox="0 0 763 541" fill="none" xmlns="http://www.w3.org/2000/svg">
<g clip-path="url(#clip0_2_27)">
<path d="M73.0587 515.036L71.963 514.446C71.7222 514.316 47.7588 501.123 36.5333 471.209C25.3074 441.293 30.8042 405.274 30.861 404.915L31.1197 403.275L32.2149 403.865C32.4557 403.995 56.4186 417.188 67.6446 447.102C78.8705 477.018 73.3737 513.037 73.3169 513.396L73.0587 515.036ZM38.3309 469.816C47.8216 495.109 66.7583 508.074 71.5562 511.034C72.4684 503.644 75.3293 473.763 65.847 448.495C56.3657 423.229 37.4216 410.244 32.6217 407.277C31.7089 414.671 28.8491 444.549 38.3309 469.816Z" fill="#3F3D56"/>
<path d="M45.1122 460.715C65.2859 478.156 73.0554 512.797 73.0554 512.797C73.0554 512.797 48.1169 519.162 27.9432 501.722C7.76951 484.281 -1.52588e-05 449.64 -1.52588e-05 449.64C-1.52588e-05 449.64 24.9385 443.275 45.1122 460.715Z" fill="#D0CDE1"/>
<path d="M690.739 6.66256H465.779V0H363.774V6.66256H137.886C135.888 6.66256 133.909 7.22815 132.063 8.32701C130.217 9.42586 128.539 11.0365 127.126 13.0669C125.713 15.0973 124.593 17.5078 123.828 20.1607C123.063 22.8135 122.67 25.6569 122.67 28.5283V471.164C122.67 476.963 124.273 482.525 127.126 486.625C129.98 490.726 133.851 493.03 137.886 493.03H690.739C692.737 493.03 694.716 492.464 696.562 491.365C698.408 490.266 700.086 488.656 701.499 486.625C702.912 484.595 704.033 482.184 704.797 479.531C705.562 476.879 705.956 474.035 705.956 471.164V28.5283C705.956 25.6569 705.562 22.8135 704.797 20.1607C704.033 17.5078 702.912 15.0973 701.499 13.0669C700.086 11.0365 698.408 9.42584 696.562 8.32699C694.716 7.22813 692.737 6.66256 690.739 6.66256Z" fill="#211F3B"/>
<path d="M685.554 45.3054H143.071V485.035H685.554V45.3054Z" fill="#003B66"/>
<path d="M413.849 33.3128C416.922 33.3128 419.413 29.7333 419.413 25.3177C419.413 20.9022 416.922 17.3227 413.849 17.3227C410.776 17.3227 408.285 20.9022 408.285 25.3177C408.285 29.7333 410.776 33.3128 413.849 33.3128Z" fill="#003B66"/>
<path d="M654.412 101.27H628.697V64.3192H654.412V101.27ZM629.815 99.6639H653.294V65.9258H629.815V99.6639Z" fill="#3F3D56"/>
<path d="M721.187 477.039H668.244V471.558C668.244 471.415 668.225 471.274 668.187 471.142C668.149 471.01 668.093 470.891 668.023 470.79C667.953 470.689 667.869 470.609 667.778 470.554C667.686 470.499 667.588 470.471 667.488 470.471H649.336C649.237 470.471 649.139 470.499 649.047 470.554C648.955 470.609 648.872 470.689 648.801 470.79C648.731 470.891 648.676 471.01 648.638 471.142C648.6 471.274 648.58 471.415 648.58 471.558V477.039H637.235V471.558C637.235 471.415 637.215 471.274 637.178 471.142C637.14 471.01 637.084 470.891 637.014 470.79C636.943 470.689 636.86 470.609 636.768 470.554C636.676 470.499 636.578 470.471 636.479 470.471H618.327C618.228 470.471 618.129 470.499 618.037 470.554C617.946 470.609 617.862 470.689 617.792 470.79C617.722 470.891 617.666 471.01 617.628 471.142C617.59 471.274 617.571 471.415 617.571 471.558V477.039H606.226V471.558C606.226 471.415 606.206 471.274 606.168 471.142C606.13 471.01 606.074 470.891 606.004 470.79C605.934 470.689 605.851 470.609 605.759 470.554C605.667 470.499 605.569 470.471 605.469 470.471H587.317C587.218 470.471 587.12 470.499 587.028 470.554C586.936 470.609 586.853 470.689 586.783 470.79C586.712 470.891 586.657 471.01 586.619 471.142C586.581 471.274 586.561 471.415 586.561 471.558V477.039H575.216V471.558C575.216 471.415 575.197 471.274 575.159 471.142C575.121 471.01 575.065 470.891 574.995 470.79C574.924 470.689 574.841 470.609 574.749 470.554C574.658 470.499 574.559 470.471 574.46 470.471H556.308C556.209 470.471 556.11 470.499 556.019 470.554C555.927 470.609 555.843 470.689 555.773 470.79C555.703 470.891 555.647 471.01 555.609 471.142C555.571 471.274 555.552 471.415 555.552 471.558V477.039H544.207V471.558C544.207 471.415 544.187 471.274 544.149 471.142C544.111 471.01 544.056 470.891 543.985 470.79C543.915 470.689 543.832 470.609 543.74 470.554C543.648 470.499 543.55 470.471 543.451 470.471H525.299C525.199 470.471 525.101 470.499 525.009 470.554C524.917 470.609 524.834 470.689 524.764 470.79C524.694 470.891 524.638 471.01 524.6 471.142C524.562 471.274 524.542 471.415 524.542 471.558V477.039H513.197V471.558C513.197 471.415 513.178 471.274 513.14 471.142C513.102 471.01 513.046 470.891 512.976 470.79C512.906 470.689 512.822 470.609 512.731 470.554C512.639 470.499 512.54 470.471 512.441 470.471H494.289C494.19 470.471 494.092 470.499 494 470.554C493.908 470.609 493.825 470.689 493.754 470.79C493.684 470.891 493.628 471.01 493.59 471.142C493.552 471.274 493.533 471.415 493.533 471.558V477.039H482.188V471.558C482.188 471.415 482.168 471.274 482.13 471.142C482.092 471.01 482.037 470.891 481.966 470.79C481.896 470.689 481.813 470.609 481.721 470.554C481.629 470.499 481.531 470.471 481.432 470.471H339.242C339.143 470.471 339.045 470.499 338.953 470.554C338.861 470.609 338.778 470.689 338.707 470.79C338.637 470.891 338.581 471.01 338.543 471.142C338.505 471.274 338.486 471.415 338.486 471.558V477.039H327.141V471.558C327.141 471.415 327.121 471.274 327.083 471.142C327.045 471.01 326.99 470.891 326.919 470.79C326.849 470.689 326.766 470.609 326.674 470.554C326.582 470.499 326.484 470.471 326.385 470.471H308.233C308.133 470.471 308.035 470.499 307.943 470.554C307.852 470.609 307.768 470.689 307.698 470.79C307.628 470.891 307.572 471.01 307.534 471.142C307.496 471.274 307.476 471.415 307.476 471.558V477.039H296.132V471.558C296.132 471.415 296.112 471.274 296.074 471.142C296.036 471.01 295.98 470.891 295.91 470.79C295.84 470.689 295.756 470.609 295.665 470.554C295.573 470.499 295.475 470.471 295.375 470.471H277.223C277.124 470.471 277.026 470.499 276.934 470.554C276.842 470.609 276.759 470.689 276.689 470.79C276.618 470.891 276.563 471.01 276.525 471.142C276.487 471.274 276.467 471.415 276.467 471.558V477.039H265.122V471.558C265.122 471.415 265.103 471.274 265.065 471.142C265.027 471.01 264.971 470.891 264.901 470.79C264.83 470.689 264.747 470.609 264.655 470.554C264.563 470.499 264.465 470.471 264.366 470.471H246.214C246.115 470.471 246.016 470.499 245.925 470.554C245.833 470.609 245.749 470.689 245.679 470.79C245.609 470.891 245.553 471.01 245.515 471.142C245.477 471.274 245.458 471.415 245.458 471.558V477.039H234.113V471.558C234.113 471.415 234.093 471.274 234.055 471.142C234.017 471.01 233.961 470.891 233.891 470.79C233.821 470.689 233.738 470.609 233.646 470.554C233.554 470.499 233.456 470.471 233.356 470.471H215.205C215.105 470.471 215.007 470.499 214.915 470.554C214.823 470.609 214.74 470.689 214.67 470.79C214.599 470.891 214.544 471.01 214.506 471.142C214.468 471.274 214.448 471.415 214.448 471.558V477.039H203.103V471.558C203.103 471.415 203.084 471.274 203.046 471.142C203.008 471.01 202.952 470.891 202.882 470.79C202.812 470.689 202.728 470.609 202.636 470.554C202.545 470.499 202.446 470.471 202.347 470.471H184.195C184.096 470.471 183.997 470.499 183.906 470.554C183.814 470.609 183.731 470.689 183.66 470.79C183.59 470.891 183.534 471.01 183.496 471.142C183.458 471.274 183.439 471.415 183.439 471.558V477.039H172.094V471.558C172.094 471.415 172.074 471.274 172.036 471.142C171.998 471.01 171.943 470.891 171.872 470.79C171.802 470.689 171.719 470.609 171.627 470.554C171.535 470.499 171.437 470.471 171.338 470.471H153.186C153.086 470.471 152.988 470.499 152.896 470.554C152.805 470.609 152.721 470.689 152.651 470.79C152.581 470.891 152.525 471.01 152.487 471.142C152.449 471.274 152.429 471.415 152.429 471.558V477.039H117.638C112.824 477.039 108.207 479.787 104.803 484.679C101.399 489.571 99.4865 496.205 99.4865 503.123V514.917C99.4865 521.835 101.399 528.469 104.803 533.36C108.207 538.252 112.824 541 117.638 541H721.187C726.002 541 730.619 538.252 734.023 533.36C737.427 528.469 739.339 521.835 739.339 514.917V503.123C739.339 496.205 737.427 489.571 734.023 484.679C730.619 479.787 726.002 477.039 721.187 477.039Z" fill="#211F3B"/>
<path d="M814 514.241H24.8257V517.702H814V514.241Z" fill="#211F3B"/>
<path d="M652.02 290.331H477.358V147.446H652.02V290.331ZM479.087 287.846H650.291V149.931H479.087V287.846Z" fill="white"/>
<path d="M332.094 318.908H176.454V179.75H332.094V318.908ZM178.183 316.423H330.364V182.235H178.183V316.423Z" fill="white"/>
<path d="M249.167 265.481L249.018 262.703C248.572 256.933 249.911 250.628 253.629 244.218C256.975 238.554 258.834 234.388 258.834 229.579C258.834 224.13 256.454 220.497 251.77 220.39C249.09 220.375 246.471 221.53 244.259 223.703L242.474 216.971C244.929 214.406 249.167 212.696 253.108 212.696C261.66 212.696 265.526 220.284 265.526 228.403C265.526 235.67 262.7 240.906 259.131 246.996C255.859 252.552 254.67 257.253 254.893 262.703L254.967 265.481L249.167 265.481ZM247.531 280.441C247.491 279.569 247.577 278.695 247.784 277.873C247.992 277.052 248.315 276.301 248.734 275.668C249.154 275.036 249.66 274.535 250.22 274.198C250.781 273.86 251.385 273.694 251.993 273.709C254.595 273.709 256.38 276.486 256.38 280.441C256.405 281.298 256.308 282.153 256.097 282.955C255.886 283.757 255.564 284.49 255.151 285.108C254.737 285.727 254.241 286.22 253.692 286.556C253.143 286.892 252.552 287.066 251.956 287.066C251.359 287.066 250.768 286.892 250.219 286.556C249.67 286.22 249.174 285.727 248.761 285.108C248.347 284.49 248.025 283.757 247.814 282.955C247.603 282.153 247.507 281.298 247.531 280.441Z" fill="#D0CDE1"/>
<path d="M559.582 234.419L559.433 231.641C558.987 225.871 560.326 219.566 564.044 213.156C567.39 207.492 569.249 203.326 569.249 198.517C569.249 193.068 566.869 189.435 562.185 189.328C559.505 189.313 556.886 190.468 554.674 192.641L552.889 185.909C555.344 183.344 559.582 181.634 563.523 181.634C572.075 181.634 575.941 189.222 575.941 197.341C575.941 204.608 573.115 209.844 569.546 215.934C566.274 221.49 565.085 226.191 565.308 231.641L565.382 234.419L559.582 234.419ZM557.946 249.379C557.906 248.507 557.992 247.633 558.2 246.811C558.407 245.99 558.73 245.239 559.149 244.607C559.569 243.974 560.075 243.473 560.635 243.136C561.196 242.798 561.8 242.632 562.408 242.647C565.01 242.647 566.795 245.424 566.795 249.379C566.82 250.236 566.723 251.091 566.512 251.893C566.301 252.695 565.979 253.428 565.566 254.046C565.152 254.665 564.656 255.158 564.107 255.494C563.558 255.83 562.968 256.004 562.371 256.004C561.774 256.004 561.183 255.83 560.634 255.494C560.085 255.158 559.589 254.665 559.176 254.046C558.762 253.428 558.44 252.695 558.229 251.893C558.018 251.091 557.922 250.236 557.946 249.379Z" fill="#D0CDE1"/>
<path d="M417.368 431.315C458.576 431.315 491.982 383.313 491.982 324.099C491.982 264.885 458.576 216.883 417.368 216.883C376.16 216.883 342.754 264.885 342.754 324.099C342.754 383.313 376.16 431.315 417.368 431.315Z" fill="#211F3B"/>
<path d="M388.551 470.921L366.245 465.119L373.479 398.194L395.784 403.997L388.551 470.921Z" fill="#211F3B"/>
<path d="M440.395 415.601L418.09 409.798L410.855 467.223L433.16 473.025L440.395 415.601Z" fill="#211F3B"/>
<path d="M448.069 476.154C448.843 470.643 441.18 463.771 430.954 460.805C420.728 457.839 411.811 459.901 411.036 465.411C410.262 470.922 417.925 477.794 428.151 480.76C438.377 483.726 447.294 481.664 448.069 476.154Z" fill="#211F3B"/>
<path d="M401.611 474.423C402.125 468.85 394.158 462.736 383.815 460.768C373.473 458.799 364.673 461.721 364.159 467.294C363.645 472.867 371.613 478.98 381.955 480.949C392.297 482.918 401.097 479.996 401.611 474.423Z" fill="#211F3B"/>
<path d="M422.592 334.517C436.676 334.517 448.093 318.111 448.093 297.873C448.093 277.635 436.676 261.23 422.592 261.23C408.508 261.23 397.091 277.635 397.091 297.873C397.091 318.111 408.508 334.517 422.592 334.517Z" fill="white"/>
<path d="M433.073 296.953C437.767 296.953 441.573 291.484 441.573 284.738C441.573 277.992 437.767 272.524 433.073 272.524C428.378 272.524 424.572 277.992 424.572 284.738C424.572 291.484 428.378 296.953 433.073 296.953Z" fill="#3F3D56"/>
<path d="M358.508 207.459C357.386 167.766 381.193 134.146 411.683 132.366C442.173 130.586 467.799 161.321 468.921 201.014C470.044 240.707 448.849 249.726 418.359 251.506C387.87 253.285 359.63 247.152 358.508 207.459Z" fill="white"/>
<path d="M488.881 320.97C508.964 314.355 524.073 301.648 522.628 292.589C521.183 283.529 503.73 281.547 483.647 288.162C463.564 294.777 448.455 307.483 449.9 316.543C451.345 325.603 468.797 327.584 488.881 320.97Z" fill="#211F3B"/>
<path d="M342.416 355.969C362.499 349.354 377.609 336.647 376.164 327.588C374.718 318.528 357.266 316.546 337.183 323.161C317.1 329.776 301.99 342.483 303.436 351.542C304.881 360.602 322.333 362.584 342.416 355.969Z" fill="#211F3B"/>
<path d="M396.875 366.351C396.478 369.508 396.517 372.747 396.99 375.882C397.463 379.017 398.362 381.987 399.634 384.624C400.906 387.26 402.527 389.51 404.405 391.246C406.282 392.982 408.379 394.17 410.576 394.741C412.773 395.313 415.026 395.257 417.208 394.577C419.39 393.897 421.457 392.606 423.292 390.778C425.126 388.95 426.693 386.62 427.901 383.922C429.109 381.225 429.935 378.211 430.333 375.055C432.005 361.779 424.862 357.081 415.623 354.677C406.384 352.274 398.548 353.075 396.875 366.351Z" fill="white"/>
<path d="M256.306 16.3041H133.621V183.998H256.306V16.3041Z" fill="#7D7898"/>
<path d="M242.364 36.3372H147.562V140.509H242.364V36.3372Z" fill="white"/>
<path d="M199.034 152.799H147.469V156.699H199.034V152.799Z" fill="#F2F2F2"/>
<path d="M199.034 164.499H147.469V168.399H199.034V164.499Z" fill="#F2F2F2"/>
<path d="M164.431 104.051C170.427 104.051 175.287 97.0668 175.287 88.4515C175.287 79.8362 170.427 72.8521 164.431 72.8521C158.435 72.8521 153.575 79.8362 153.575 88.4515C153.575 97.0668 158.435 104.051 164.431 104.051Z" fill="#3F3D56"/>
<path d="M194.963 104.051C200.959 104.051 205.819 97.0668 205.819 88.4515C205.819 79.8362 200.959 72.8521 194.963 72.8521C188.968 72.8521 184.107 79.8362 184.107 88.4515C184.107 97.0668 188.968 104.051 194.963 104.051Z" fill="#003B66"/>
<path d="M225.496 104.051C231.491 104.051 236.352 97.0668 236.352 88.4515C236.352 79.8362 231.491 72.8521 225.496 72.8521C219.5 72.8521 214.64 79.8362 214.64 88.4515C214.64 97.0668 219.5 104.051 225.496 104.051Z" fill="#E6E6E6"/>
<path d="M194.963 33.8535C197.961 33.8535 200.391 30.3614 200.391 26.0538C200.391 21.7461 197.961 18.2541 194.963 18.2541C191.966 18.2541 189.535 21.7461 189.535 26.0538C189.535 30.3614 191.966 33.8535 194.963 33.8535Z" fill="#3F3D56"/>
<path d="M314.66 341.009H191.975V508.703H314.66V341.009Z" fill="#7D7898"/>
<path d="M300.718 361.042H205.916V465.214H300.718V361.042Z" fill="white"/>
<path d="M260.013 378.162H226.777V425.919H260.013V378.162Z" fill="#003B66"/>
<path d="M239.5 390.104V448.095H279.857V390.104H239.5ZM278.107 445.579H241.251V392.619H278.107V445.579Z" fill="#3F3D56"/>
<path d="M257.388 475.554H205.823V479.454H257.388V475.554Z" fill="#F2F2F2"/>
<path d="M253.317 358.558C256.315 358.558 258.745 355.066 258.745 350.759C258.745 346.451 256.315 342.959 253.317 342.959C250.32 342.959 247.889 346.451 247.889 350.759C247.889 355.066 250.32 358.558 253.317 358.558Z" fill="#3F3D56"/>
<path d="M634.08 290.805H511.395V458.499H634.08V290.805Z" fill="#7D7898"/>
<path d="M620.138 310.839H525.336V415.011H620.138V310.839Z" fill="white"/>
<path d="M582.935 392.39H562.54V401.074H582.935V392.39Z" fill="#3F3D56"/>
<path d="M607.591 324.775H537.884V328.497H607.591V324.775Z" fill="#3F3D56"/>
<path d="M607.591 336.561H537.884V340.283H607.591V336.561Z" fill="#3F3D56"/>
<path d="M607.591 348.347H537.884V352.069H607.591V348.347Z" fill="#3F3D56"/>
<path d="M607.591 360.133H537.884V363.855H607.591V360.133Z" fill="#3F3D56"/>
<path d="M607.591 371.919H537.884V375.641H607.591V371.919Z" fill="#3F3D56"/>
<path d="M576.808 425.35H525.242V429.25H576.808V425.35Z" fill="#F2F2F2"/>
<path d="M597.163 435.1H525.242V439H597.163V435.1Z" fill="#F2F2F2"/>
<path d="M572.737 308.355C575.735 308.355 578.165 304.863 578.165 300.555C578.165 296.247 575.735 292.755 572.737 292.755C569.74 292.755 567.309 296.247 567.309 300.555C567.309 304.863 569.74 308.355 572.737 308.355Z" fill="#3F3D56"/>
<path opacity="0.1" d="M62.7884 306.524C45.2017 328.073 16.365 329.636 16.365 329.636C16.365 329.636 16.042 296.262 33.6287 274.712C51.2154 253.163 80.0521 251.6 80.0521 251.6C80.0521 251.6 80.3751 284.975 62.7884 306.524Z" fill="#D0CDE1"/>
</g>
<defs>
<clipPath id="clip0_2_27">
<rect width="814" height="541" fill="white"/>
</clipPath>
</defs>
</svg>
