<svg width="144" height="36" viewBox="0 0 144 36" fill="none" xmlns="http://www.w3.org/2000/svg">
<g filter="url(#filter0_d_805_2)">
<path d="M45.1 20.448L42.988 14.676C42.884 14.42 42.776 14.116 42.664 13.764C42.552 13.412 42.44 13.032 42.328 12.624C42.224 13.032 42.116 13.416 42.004 13.776C41.892 14.128 41.784 14.436 41.68 14.7L39.58 20.448L45.1 20.448ZM50.8 27L48.304 27C48.024 27 47.796 26.932 47.62 26.796C47.444 26.652 47.312 26.476 47.224 26.268L45.928 22.728L38.74 22.728L37.444 26.268C37.38 26.452 37.256 26.62 37.072 26.772C36.888 26.924 36.66 27 36.388 27L33.868 27L40.696 9.648L43.984 9.648L50.8 27ZM59.6401 17.088C59.5601 17.216 59.4761 17.308 59.3881 17.364C59.3001 17.412 59.1881 17.436 59.0521 17.436C58.9081 17.436 58.7521 17.396 58.5841 17.316C58.4241 17.236 58.2361 17.148 58.0201 17.052C57.8041 16.948 57.5561 16.856 57.2761 16.776C57.0041 16.696 56.6801 16.656 56.3041 16.656C55.7201 16.656 55.2601 16.78 54.9241 17.028C54.5961 17.276 54.4321 17.6 54.4321 18C54.4321 18.264 54.5161 18.488 54.6841 18.672C54.8601 18.848 55.0881 19.004 55.3681 19.14C55.6561 19.276 55.9801 19.4 56.3401 19.512C56.7001 19.616 57.0641 19.732 57.4321 19.86C57.8081 19.988 58.1761 20.136 58.5361 20.304C58.8961 20.464 59.2161 20.672 59.4961 20.928C59.7841 21.176 60.0121 21.476 60.1801 21.828C60.3561 22.18 60.4441 22.604 60.4441 23.1C60.4441 23.692 60.3361 24.24 60.1201 24.744C59.9121 25.24 59.6001 25.672 59.1841 26.04C58.7681 26.4 58.2521 26.684 57.6361 26.892C57.0281 27.092 56.3241 27.192 55.5241 27.192C55.1001 27.192 54.6841 27.152 54.2761 27.072C53.8761 27 53.4881 26.896 53.1121 26.76C52.7441 26.624 52.4001 26.464 52.0801 26.28C51.7681 26.096 51.4921 25.896 51.2521 25.68L51.9361 24.552C52.0241 24.416 52.1281 24.312 52.2481 24.24C52.3681 24.168 52.5201 24.132 52.7041 24.132C52.8881 24.132 53.0601 24.184 53.2201 24.288C53.3881 24.392 53.5801 24.504 53.7961 24.624C54.0121 24.744 54.2641 24.856 54.5521 24.96C54.8481 25.064 55.2201 25.116 55.6681 25.116C56.0201 25.116 56.3201 25.076 56.5681 24.996C56.8241 24.908 57.0321 24.796 57.1921 24.66C57.3601 24.524 57.4801 24.368 57.5521 24.192C57.6321 24.008 57.6721 23.82 57.6721 23.628C57.6721 23.34 57.5841 23.104 57.4081 22.92C57.2401 22.736 57.0121 22.576 56.7241 22.44C56.4441 22.304 56.1201 22.184 55.7521 22.08C55.3921 21.968 55.0201 21.848 54.6361 21.72C54.2601 21.592 53.8881 21.444 53.5201 21.276C53.1601 21.1 52.8361 20.88 52.5481 20.616C52.2681 20.352 52.0401 20.028 51.8641 19.644C51.6961 19.26 51.6121 18.796 51.6121 18.252C51.6121 17.748 51.7121 17.268 51.9121 16.812C52.1121 16.356 52.4041 15.96 52.7881 15.624C53.1801 15.28 53.6641 15.008 54.2401 14.808C54.8241 14.6 55.4961 14.496 56.2561 14.496C57.1041 14.496 57.8761 14.636 58.5721 14.916C59.2681 15.196 59.8481 15.564 60.3121 16.02L59.6401 17.088ZM70.1869 17.088C70.1069 17.216 70.0229 17.308 69.9349 17.364C69.8469 17.412 69.7349 17.436 69.5989 17.436C69.4549 17.436 69.2989 17.396 69.1309 17.316C68.9709 17.236 68.7829 17.148 68.5669 17.052C68.3509 16.948 68.1029 16.856 67.8229 16.776C67.5509 16.696 67.2269 16.656 66.8509 16.656C66.2669 16.656 65.8069 16.78 65.4709 17.028C65.1429 17.276 64.9789 17.6 64.9789 18C64.9789 18.264 65.0629 18.488 65.2309 18.672C65.4069 18.848 65.6349 19.004 65.9149 19.14C66.2029 19.276 66.5269 19.4 66.8869 19.512C67.2469 19.616 67.6109 19.732 67.9789 19.86C68.3549 19.988 68.7229 20.136 69.0829 20.304C69.4429 20.464 69.7629 20.672 70.0429 20.928C70.3309 21.176 70.5589 21.476 70.7269 21.828C70.9029 22.18 70.9909 22.604 70.9909 23.1C70.9909 23.692 70.8829 24.24 70.6669 24.744C70.4589 25.24 70.1469 25.672 69.7309 26.04C69.3149 26.4 68.7989 26.684 68.1829 26.892C67.5749 27.092 66.8709 27.192 66.0709 27.192C65.6469 27.192 65.2309 27.152 64.8229 27.072C64.4229 27 64.0349 26.896 63.6589 26.76C63.2909 26.624 62.9469 26.464 62.6269 26.28C62.3149 26.096 62.0389 25.896 61.7989 25.68L62.4829 24.552C62.5709 24.416 62.6749 24.312 62.7949 24.24C62.9149 24.168 63.0669 24.132 63.2509 24.132C63.4349 24.132 63.6069 24.184 63.7669 24.288C63.9349 24.392 64.1269 24.504 64.3429 24.624C64.5589 24.744 64.8109 24.856 65.0989 24.96C65.3949 25.064 65.7669 25.116 66.2149 25.116C66.5669 25.116 66.8669 25.076 67.1149 24.996C67.3709 24.908 67.5789 24.796 67.7389 24.66C67.9069 24.524 68.0269 24.368 68.0989 24.192C68.1789 24.008 68.2189 23.82 68.2189 23.628C68.2189 23.34 68.1309 23.104 67.9549 22.92C67.7869 22.736 67.5589 22.576 67.2709 22.44C66.9909 22.304 66.6669 22.184 66.2989 22.08C65.9389 21.968 65.5669 21.848 65.1829 21.72C64.8069 21.592 64.4349 21.444 64.0669 21.276C63.7069 21.1 63.3829 20.88 63.0949 20.616C62.8149 20.352 62.5869 20.028 62.4109 19.644C62.2429 19.26 62.1589 18.796 62.1589 18.252C62.1589 17.748 62.2589 17.268 62.4589 16.812C62.6589 16.356 62.9509 15.96 63.3349 15.624C63.7269 15.28 64.2109 15.008 64.7869 14.808C65.3709 14.6 66.0429 14.496 66.8029 14.496C67.6509 14.496 68.4229 14.636 69.1189 14.916C69.8149 15.196 70.3949 15.564 70.8589 16.02L70.1869 17.088ZM81.1538 19.428C81.1538 19.044 81.0978 18.684 80.9858 18.348C80.8818 18.004 80.7218 17.704 80.5058 17.448C80.2898 17.192 80.0138 16.992 79.6778 16.848C79.3498 16.696 78.9658 16.62 78.5258 16.62C77.6698 16.62 76.9938 16.864 76.4978 17.352C76.0098 17.84 75.6978 18.532 75.5618 19.428L81.1538 19.428ZM75.5018 21.216C75.5498 21.848 75.6618 22.396 75.8378 22.86C76.0138 23.316 76.2458 23.696 76.5338 24C76.8218 24.296 77.1618 24.52 77.5538 24.672C77.9538 24.816 78.3938 24.888 78.8738 24.888C79.3538 24.888 79.7658 24.832 80.1098 24.72C80.4618 24.608 80.7658 24.484 81.0218 24.348C81.2858 24.212 81.5138 24.088 81.7058 23.976C81.9058 23.864 82.0978 23.808 82.2818 23.808C82.5298 23.808 82.7138 23.9 82.8338 24.084L83.6858 25.164C83.3578 25.548 82.9898 25.872 82.5818 26.136C82.1738 26.392 81.7458 26.6 81.2978 26.76C80.8578 26.912 80.4058 27.02 79.9418 27.084C79.4858 27.148 79.0418 27.18 78.6098 27.18C77.7538 27.18 76.9578 27.04 76.2218 26.76C75.4858 26.472 74.8458 26.052 74.3018 25.5C73.7578 24.94 73.3298 24.252 73.0178 23.436C72.7058 22.612 72.5498 21.66 72.5498 20.58C72.5498 19.74 72.6858 18.952 72.9578 18.216C73.2298 17.472 73.6178 16.828 74.1218 16.284C74.6338 15.732 75.2538 15.296 75.9818 14.976C76.7178 14.656 77.5458 14.496 78.4658 14.496C79.2418 14.496 79.9578 14.62 80.6138 14.868C81.2698 15.116 81.8338 15.48 82.3058 15.96C82.7778 16.432 83.1458 17.016 83.4098 17.712C83.6818 18.4 83.8178 19.188 83.8178 20.076C83.8178 20.524 83.7698 20.828 83.6738 20.988C83.5778 21.14 83.3938 21.216 83.1218 21.216L75.5018 21.216ZM93.5541 17.088C93.4741 17.216 93.3901 17.308 93.3021 17.364C93.2141 17.412 93.1021 17.436 92.9661 17.436C92.8221 17.436 92.6661 17.396 92.4981 17.316C92.3381 17.236 92.1501 17.148 91.9341 17.052C91.7181 16.948 91.4701 16.856 91.1901 16.776C90.9181 16.696 90.5941 16.656 90.2181 16.656C89.6341 16.656 89.1741 16.78 88.8381 17.028C88.5101 17.276 88.3461 17.6 88.3461 18C88.3461 18.264 88.4301 18.488 88.5981 18.672C88.7741 18.848 89.0021 19.004 89.2821 19.14C89.5701 19.276 89.8941 19.4 90.2541 19.512C90.6141 19.616 90.9781 19.732 91.3461 19.86C91.7221 19.988 92.0901 20.136 92.4501 20.304C92.8101 20.464 93.1301 20.672 93.4101 20.928C93.6981 21.176 93.9261 21.476 94.0941 21.828C94.2701 22.18 94.3581 22.604 94.3581 23.1C94.3581 23.692 94.2501 24.24 94.0341 24.744C93.8261 25.24 93.5141 25.672 93.0981 26.04C92.6821 26.4 92.1661 26.684 91.5501 26.892C90.9421 27.092 90.2381 27.192 89.4381 27.192C89.0141 27.192 88.5981 27.152 88.1901 27.072C87.7901 27 87.4021 26.896 87.0261 26.76C86.6581 26.624 86.3141 26.464 85.9941 26.28C85.6821 26.096 85.4061 25.896 85.1661 25.68L85.8501 24.552C85.9381 24.416 86.0421 24.312 86.1621 24.24C86.2821 24.168 86.4341 24.132 86.6181 24.132C86.8021 24.132 86.9741 24.184 87.1341 24.288C87.3021 24.392 87.4941 24.504 87.7101 24.624C87.9261 24.744 88.1781 24.856 88.4661 24.96C88.7621 25.064 89.1341 25.116 89.5821 25.116C89.9341 25.116 90.2341 25.076 90.4821 24.996C90.7381 24.908 90.9461 24.796 91.1061 24.66C91.2741 24.524 91.3941 24.368 91.4661 24.192C91.5461 24.008 91.5861 23.82 91.5861 23.628C91.5861 23.34 91.4981 23.104 91.3221 22.92C91.1541 22.736 90.9261 22.576 90.6381 22.44C90.3581 22.304 90.0341 22.184 89.6661 22.08C89.3061 21.968 88.9341 21.848 88.5501 21.72C88.1741 21.592 87.8021 21.444 87.4341 21.276C87.0741 21.1 86.7501 20.88 86.4621 20.616C86.1821 20.352 85.9541 20.028 85.7781 19.644C85.6101 19.26 85.5261 18.796 85.5261 18.252C85.5261 17.748 85.6261 17.268 85.8261 16.812C86.0261 16.356 86.3181 15.96 86.7021 15.624C87.0941 15.28 87.5781 15.008 88.1541 14.808C88.7381 14.6 89.4101 14.496 90.1701 14.496C91.0181 14.496 91.7901 14.636 92.4861 14.916C93.1821 15.196 93.7621 15.564 94.2261 16.02L93.5541 17.088ZM104.101 17.088C104.021 17.216 103.937 17.308 103.849 17.364C103.761 17.412 103.649 17.436 103.513 17.436C103.369 17.436 103.213 17.396 103.045 17.316C102.885 17.236 102.697 17.148 102.481 17.052C102.265 16.948 102.017 16.856 101.737 16.776C101.465 16.696 101.141 16.656 100.765 16.656C100.181 16.656 99.721 16.78 99.385 17.028C99.057 17.276 98.893 17.6 98.893 18C98.893 18.264 98.977 18.488 99.145 18.672C99.321 18.848 99.549 19.004 99.829 19.14C100.117 19.276 100.441 19.4 100.801 19.512C101.161 19.616 101.525 19.732 101.893 19.86C102.269 19.988 102.637 20.136 102.997 20.304C103.357 20.464 103.677 20.672 103.957 20.928C104.245 21.176 104.473 21.476 104.641 21.828C104.817 22.18 104.905 22.604 104.905 23.1C104.905 23.692 104.797 24.24 104.581 24.744C104.373 25.24 104.061 25.672 103.645 26.04C103.229 26.4 102.713 26.684 102.097 26.892C101.489 27.092 100.785 27.192 99.985 27.192C99.561 27.192 99.145 27.152 98.737 27.072C98.337 27 97.949 26.896 97.573 26.76C97.205 26.624 96.861 26.464 96.541 26.28C96.229 26.096 95.953 25.896 95.713 25.68L96.397 24.552C96.485 24.416 96.589 24.312 96.709 24.24C96.829 24.168 96.981 24.132 97.165 24.132C97.349 24.132 97.521 24.184 97.681 24.288C97.849 24.392 98.041 24.504 98.257 24.624C98.473 24.744 98.725 24.856 99.013 24.96C99.309 25.064 99.681 25.116 100.129 25.116C100.481 25.116 100.781 25.076 101.029 24.996C101.285 24.908 101.493 24.796 101.653 24.66C101.821 24.524 101.941 24.368 102.013 24.192C102.093 24.008 102.133 23.82 102.133 23.628C102.133 23.34 102.045 23.104 101.869 22.92C101.701 22.736 101.473 22.576 101.185 22.44C100.905 22.304 100.581 22.184 100.213 22.08C99.853 21.968 99.481 21.848 99.097 21.72C98.721 21.592 98.349 21.444 97.981 21.276C97.621 21.1 97.297 20.88 97.009 20.616C96.729 20.352 96.501 20.028 96.325 19.644C96.157 19.26 96.073 18.796 96.073 18.252C96.073 17.748 96.173 17.268 96.373 16.812C96.573 16.356 96.865 15.96 97.249 15.624C97.641 15.28 98.125 15.008 98.701 14.808C99.285 14.6 99.957 14.496 100.717 14.496C101.565 14.496 102.337 14.636 103.033 14.916C103.729 15.196 104.309 15.564 104.773 16.02L104.101 17.088ZM126.115 9.64801L126.115 27L123.271 27L123.271 15.792C123.271 15.344 123.295 14.86 123.343 14.34L118.099 24.192C117.851 24.664 117.471 24.9 116.959 24.9L116.503 24.9C115.991 24.9 115.611 24.664 115.363 24.192L110.059 14.304C110.083 14.568 110.103 14.828 110.119 15.084C110.135 15.34 110.143 15.576 110.143 15.792L110.143 27L107.299 27L107.299 9.64801L109.735 9.64801C109.879 9.64801 110.003 9.65201 110.107 9.66001C110.211 9.66801 110.303 9.68801 110.383 9.72001C110.471 9.75201 110.547 9.80401 110.611 9.87601C110.683 9.94801 110.751 10.044 110.815 10.164L116.011 19.8C116.147 20.056 116.271 20.32 116.383 20.592C116.503 20.864 116.619 21.144 116.731 21.432C116.843 21.136 116.959 20.852 117.079 20.58C117.199 20.3 117.327 20.032 117.463 19.776L122.587 10.164C122.651 10.044 122.719 9.94801 122.791 9.87601C122.863 9.80401 122.939 9.75201 123.019 9.72001C123.107 9.68801 123.203 9.66801 123.307 9.66001C123.411 9.65201 123.535 9.64801 123.679 9.64801L126.115 9.64801ZM137.076 19.428C137.076 19.044 137.02 18.684 136.908 18.348C136.804 18.004 136.644 17.704 136.428 17.448C136.212 17.192 135.936 16.992 135.6 16.848C135.272 16.696 134.888 16.62 134.448 16.62C133.592 16.62 132.916 16.864 132.42 17.352C131.932 17.84 131.62 18.532 131.484 19.428L137.076 19.428ZM131.424 21.216C131.472 21.848 131.584 22.396 131.76 22.86C131.936 23.316 132.168 23.696 132.456 24C132.744 24.296 133.084 24.52 133.476 24.672C133.876 24.816 134.316 24.888 134.796 24.888C135.276 24.888 135.688 24.832 136.032 24.72C136.384 24.608 136.688 24.484 136.944 24.348C137.208 24.212 137.436 24.088 137.628 23.976C137.828 23.864 138.02 23.808 138.204 23.808C138.452 23.808 138.636 23.9 138.756 24.084L139.608 25.164C139.28 25.548 138.912 25.872 138.504 26.136C138.096 26.392 137.668 26.6 137.22 26.76C136.78 26.912 136.328 27.02 135.864 27.084C135.408 27.148 134.964 27.18 134.532 27.18C133.676 27.18 132.88 27.04 132.144 26.76C131.408 26.472 130.768 26.052 130.224 25.5C129.68 24.94 129.252 24.252 128.94 23.436C128.628 22.612 128.472 21.66 128.472 20.58C128.472 19.74 128.608 18.952 128.88 18.216C129.152 17.472 129.54 16.828 130.044 16.284C130.556 15.732 131.176 15.296 131.904 14.976C132.64 14.656 133.468 14.496 134.388 14.496C135.164 14.496 135.88 14.62 136.536 14.868C137.192 15.116 137.756 15.48 138.228 15.96C138.7 16.432 139.068 17.016 139.332 17.712C139.604 18.4 139.74 19.188 139.74 20.076C139.74 20.524 139.692 20.828 139.596 20.988C139.5 21.14 139.316 21.216 139.044 21.216L131.424 21.216Z" fill="#003B66"/>
</g>
<g filter="url(#filter1_d_805_2)">
<path d="M16 2L18.6942 10.6373H27.4127L20.3593 15.9754L23.0534 24.6127L16 19.2746L8.94658 24.6127L11.6407 15.9754L4.58732 10.6373H13.3058L16 2Z" fill="#003B66"/>
</g>
<defs>
<filter id="filter0_d_805_2" x="29.868" y="9.64801" width="113.872" height="25.544" filterUnits="userSpaceOnUse" color-interpolation-filters="sRGB">
<feFlood flood-opacity="0" result="BackgroundImageFix"/>
<feColorMatrix in="SourceAlpha" type="matrix" values="0 0 0 0 0 0 0 0 0 0 0 0 0 0 0 0 0 0 127 0" result="hardAlpha"/>
<feOffset dy="4"/>
<feGaussianBlur stdDeviation="2"/>
<feComposite in2="hardAlpha" operator="out"/>
<feColorMatrix type="matrix" values="0 0 0 0 0 0 0 0 0 0 0 0 0 0 0 0 0 0 0.25 0"/>
<feBlend mode="normal" in2="BackgroundImageFix" result="effect1_dropShadow_805_2"/>
<feBlend mode="normal" in="SourceGraphic" in2="effect1_dropShadow_805_2" result="shape"/>
</filter>
<filter id="filter1_d_805_2" x="0.587341" y="2" width="30.8253" height="30.6127" filterUnits="userSpaceOnUse" color-interpolation-filters="sRGB">
<feFlood flood-opacity="0" result="BackgroundImageFix"/>
<feColorMatrix in="SourceAlpha" type="matrix" values="0 0 0 0 0 0 0 0 0 0 0 0 0 0 0 0 0 0 127 0" result="hardAlpha"/>
<feOffset dy="4"/>
<feGaussianBlur stdDeviation="2"/>
<feComposite in2="hardAlpha" operator="out"/>
<feColorMatrix type="matrix" values="0 0 0 0 0 0 0 0 0 0 0 0 0 0 0 0 0 0 0.25 0"/>
<feBlend mode="normal" in2="BackgroundImageFix" result="effect1_dropShadow_805_2"/>
<feBlend mode="normal" in="SourceGraphic" in2="effect1_dropShadow_805_2" result="shape"/>
</filter>
</defs>
</svg>
